<svg width="53" height="56" viewBox="0 0 53 56" fill="none" xmlns="http://www.w3.org/2000/svg">
<g clip-path="url(#clip0_0_3)" filter="url(#filter0_d_0_3)">
<path d="M43.6719 -59.0312C43.6719 -58.7656 43.5938 -58.5156 43.4375 -58.2812C43.2969 -58.0625 43.0938 -57.9141 42.8281 -57.8359C42.2812 -57.6953 41.7422 -57.5625 41.2109 -57.4375C40.6797 -57.3281 40.1406 -57.2344 39.5938 -57.1562C40 -54.6875 40.2812 -52.2891 40.4375 -49.9609C40.6094 -47.6328 40.6953 -45.3281 40.6953 -43.0469C40.6953 -39.9531 40.5703 -36.9688 40.3203 -34.0938C40.0859 -31.2188 39.7969 -28.3984 39.4531 -25.6328C39.3594 -25.2891 39.1953 -25.0312 38.9609 -24.8594C38.7422 -24.6719 38.4922 -24.5781 38.2109 -24.5781C37.6797 -24.5781 37.3125 -24.8281 37.1094 -25.3281C36.6719 -26.3906 36.0703 -27.6953 35.3047 -29.2422C34.5547 -30.8047 33.7031 -32.4766 32.75 -34.2578C31.8125 -36.0547 30.8125 -37.9141 29.75 -39.8359C28.7031 -41.7578 27.6719 -43.6172 26.6562 -45.4141C25.6562 -47.2109 24.7109 -48.8906 23.8203 -50.4531C22.9297 -52.0312 22.1719 -53.3672 21.5469 -54.4609L20.8438 -27.2969C21.4375 -27.25 22.0391 -27.2031 22.6484 -27.1562C23.2734 -27.1094 23.8984 -27.0625 24.5234 -27.0156C24.8359 -26.9688 25.0938 -26.8281 25.2969 -26.5938C25.5156 -26.3594 25.625 -26.0859 25.625 -25.7734C25.625 -25.4141 25.4922 -25.125 25.2266 -24.9062C24.9609 -24.6875 24.6797 -24.5781 24.3828 -24.5781H24.2891C23.0391 -24.7031 21.7891 -24.7969 20.5391 -24.8594C19.3047 -24.9219 18.0625 -24.9531 16.8125 -24.9531C15.5781 -24.9531 14.3516 -24.9219 13.1328 -24.8594C11.9297 -24.7969 10.7188 -24.7031 9.5 -24.5781H9.40625C9.0625 -24.5781 8.76562 -24.7031 8.51562 -24.9531C8.28125 -25.1875 8.16406 -25.4609 8.16406 -25.7734C8.16406 -26.0859 8.26562 -26.3594 8.46875 -26.5938C8.6875 -26.8281 8.95312 -26.9688 9.26562 -27.0156C9.84375 -27.0625 10.4219 -27.1094 11 -27.1562C11.5938 -27.2031 12.1797 -27.25 12.7578 -27.2969L13.2969 -56.875C11.9531 -56.9688 10.5938 -57.1094 9.21875 -57.2969C8.90625 -57.3438 8.64844 -57.4844 8.44531 -57.7188C8.25781 -57.9688 8.16406 -58.25 8.16406 -58.5625C8.16406 -58.9375 8.30469 -59.2266 8.58594 -59.4297C8.86719 -59.6484 9.14062 -59.7578 9.40625 -59.7578H9.54688C11.2188 -59.5391 12.8516 -59.3672 14.4453 -59.2422C16.0547 -59.1328 17.6562 -59.0781 19.25 -59.0781H20.9844C21 -59.0781 21.0469 -59.0703 21.125 -59.0547C21.2031 -59.0547 21.2891 -59.0391 21.3828 -59.0078C21.4922 -58.9766 21.6016 -58.9219 21.7109 -58.8438C21.8359 -58.7656 21.9453 -58.6562 22.0391 -58.5156C22.1016 -58.4062 22.3047 -58.0547 22.6484 -57.4609C22.9922 -56.8672 23.4375 -56.0938 23.9844 -55.1406C24.5312 -54.1875 25.1562 -53.0859 25.8594 -51.8359C26.5781 -50.5859 27.3359 -49.25 28.1328 -47.8281C28.9453 -46.4062 29.7734 -44.9297 30.6172 -43.3984C31.4609 -41.8672 32.2891 -40.3359 33.1016 -38.8047C33.9297 -37.2891 34.7188 -35.8047 35.4688 -34.3516C36.2344 -32.9141 36.9219 -31.5703 37.5312 -30.3203C37.7344 -32.3672 37.9062 -34.4453 38.0469 -36.5547C38.1875 -38.6641 38.2578 -40.8281 38.2578 -43.0469C38.2578 -45.2656 38.1719 -47.5312 38 -49.8438C37.8281 -52.1562 37.5469 -54.5312 37.1562 -56.9688C36.9531 -56.9375 36.7578 -56.9219 36.5703 -56.9219C36.3828 -56.9219 36.1797 -56.9219 35.9609 -56.9219C35.0391 -56.9219 34.0781 -56.9688 33.0781 -57.0625C32.7656 -57.0938 32.5 -57.2266 32.2812 -57.4609C32.0781 -57.7109 31.9766 -57.9922 31.9766 -58.3047C31.9766 -58.6484 32.1016 -58.9375 32.3516 -59.1719C32.6172 -59.4062 32.9062 -59.5234 33.2188 -59.5234H33.3594C33.7969 -59.4609 34.2266 -59.4141 34.6484 -59.3828C35.0859 -59.3672 35.5234 -59.3594 35.9609 -59.3594C37.0391 -59.3594 38.0938 -59.4297 39.125 -59.5703C40.1562 -59.7109 41.1641 -59.9141 42.1484 -60.1797C42.2109 -60.2109 42.3203 -60.2266 42.4766 -60.2266C42.8203 -60.2266 43.1016 -60.1016 43.3203 -59.8516C43.5547 -59.6172 43.6719 -59.3438 43.6719 -59.0312ZM48.5469 27.2188C48.5469 28.2969 48.3594 29.2734 47.9844 30.1484C47.6094 31.0234 47.0938 31.7656 46.4375 32.375C45.7812 32.9844 45.0078 33.4531 44.1172 33.7812C43.2422 34.1094 42.3047 34.2734 41.3047 34.2734C40.6953 34.2734 40.1172 34.1641 39.5703 33.9453C39.0391 33.7266 38.5703 33.4297 38.1641 33.0547C37.7734 32.6797 37.4609 32.2422 37.2266 31.7422C36.9922 31.2266 36.875 30.6797 36.875 30.1016C36.875 29.5234 36.9844 28.9766 37.2031 28.4609C37.4375 27.9453 37.7422 27.5 38.1172 27.125C38.5078 26.7344 38.9531 26.4297 39.4531 26.2109C39.9688 25.9922 40.5156 25.8828 41.0938 25.8828C41.6719 25.8828 42.2109 25.9922 42.7109 26.2109C43.2266 26.4297 43.6719 26.7266 44.0469 27.1016C44.4219 27.4766 44.7188 27.9219 44.9375 28.4375C45.1562 28.9375 45.2734 29.4766 45.2891 30.0547C45.8203 29.2578 46.0859 28.3125 46.0859 27.2188C46.0391 26.6875 45.9219 26.1875 45.7344 25.7188C45.5469 25.25 45.2969 24.8438 44.9844 24.5C44.6719 24.1406 44.2969 23.8594 43.8594 23.6562C43.4219 23.4375 42.9375 23.3281 42.4062 23.3281C41.9375 23.3281 41.4922 23.4141 41.0703 23.5859C40.6641 23.7422 40.2656 23.9609 39.875 24.2422C39.5 24.5078 39.125 24.8125 38.75 25.1562C38.3906 25.4844 38.0234 25.8203 37.6484 26.1641C37.2891 26.5234 36.8516 26.9297 36.3359 27.3828C35.8203 27.8359 35.2578 28.2969 34.6484 28.7656C34.0547 29.2344 33.4297 29.6797 32.7734 30.1016C32.1328 30.5078 31.5 30.8438 30.875 31.1094C30.9688 31.7031 31.0156 32.2812 31.0156 32.8438C31.0156 34.3125 30.6953 35.6328 30.0547 36.8047C29.4141 37.9766 28.5703 38.9766 27.5234 39.8047C26.4922 40.6328 25.3203 41.2656 24.0078 41.7031C22.6953 42.1562 21.3672 42.3828 20.0234 42.3828C17.9766 42.3828 16.0312 42.1953 14.1875 41.8203C12.3594 41.4453 10.75 40.8125 9.35938 39.9219C7.98438 39.0312 6.89062 37.8516 6.07812 36.3828C5.26562 34.9141 4.85938 33.0938 4.85938 30.9219C4.85938 29.6562 5.01562 28.4766 5.32812 27.3828C5.65625 26.2734 6.11719 25.2734 6.71094 24.3828C7.32031 23.4922 8.0625 22.7188 8.9375 22.0625C9.8125 21.4062 10.8047 20.8906 11.9141 20.5156C11.1484 20 10.5 19.3203 9.96875 18.4766C9.4375 17.6328 9.17188 16.6484 9.17188 15.5234C9.17188 14.2891 9.46094 13.2422 10.0391 12.3828C10.6328 11.5078 11.4062 10.7969 12.3594 10.25C13.3125 9.6875 14.3906 9.28125 15.5938 9.03125C16.8125 8.78125 18.0547 8.65625 19.3203 8.65625C20.6484 8.65625 21.8047 8.77344 22.7891 9.00781C23.7734 9.22656 24.6016 9.51563 25.2734 9.875C25.9609 10.2344 26.5156 10.6406 26.9375 11.0938C27.375 11.5469 27.7109 12.0078 27.9453 12.4766C28.1953 12.9297 28.3594 13.375 28.4375 13.8125C28.5312 14.2344 28.5781 14.5937 28.5781 14.8906C28.5781 15.4688 28.4688 16.0156 28.25 16.5312C28.0312 17.0312 27.7344 17.4688 27.3594 17.8438C26.9844 18.2188 26.5391 18.5156 26.0234 18.7344C25.5234 18.9531 24.9844 19.0625 24.4062 19.0625C23.8281 19.0625 23.2812 18.9531 22.7656 18.7344C22.2656 18.5156 21.8281 18.2188 21.4531 17.8438C21.0781 17.4688 20.7812 17.0312 20.5625 16.5312C20.3438 16.0156 20.2344 15.4688 20.2344 14.8906C20.2344 14.1563 20.3984 13.4844 20.7266 12.875C21.0547 12.2656 21.4922 11.7812 22.0391 11.4219C21.2891 11.2344 20.3828 11.1406 19.3203 11.1406C18.3984 11.1406 17.4766 11.2109 16.5547 11.3516C15.6484 11.4922 14.8281 11.7344 14.0938 12.0781C13.375 12.4219 12.7891 12.875 12.3359 13.4375C11.8984 14 11.6797 14.7109 11.6797 15.5703C11.6797 16.1797 11.8047 16.7109 12.0547 17.1641C12.3203 17.6016 12.6641 17.9844 13.0859 18.3125C13.5078 18.6406 13.9844 18.9062 14.5156 19.1094C15.0625 19.3125 15.6172 19.4766 16.1797 19.6016C16.7422 19.7266 17.2969 19.8125 17.8438 19.8594C18.3906 19.9062 18.8828 19.9297 19.3203 19.9297H19.3672H19.4141C19.7266 19.9297 19.9922 20.0469 20.2109 20.2812C20.4453 20.5 20.5781 20.7812 20.6094 21.125V21.1719C20.6094 21.4844 20.5 21.7578 20.2812 21.9922C20.0781 22.2266 19.8203 22.3672 19.5078 22.4141C19.4609 22.4141 19.2656 22.4453 18.9219 22.5078C18.5781 22.5703 18.1641 22.7031 17.6797 22.9062C17.1953 23.0938 16.6719 23.3828 16.1094 23.7734C15.5469 24.1484 15.0312 24.6562 14.5625 25.2969C14.0938 25.9219 13.7031 26.7031 13.3906 27.6406C13.0781 28.5781 12.9219 29.7031 12.9219 31.0156C12.9219 32.375 13.1484 33.5703 13.6016 34.6016C14.0547 35.6172 14.6719 36.4688 15.4531 37.1562C16.25 37.8438 17.1797 38.3594 18.2422 38.7031C19.3047 39.0469 20.4453 39.2188 21.6641 39.2188C22.6016 39.2188 23.4844 39.0781 24.3125 38.7969C25.1562 38.5 25.8906 38.0859 26.5156 37.5547C27.1562 37.0078 27.6562 36.3438 28.0156 35.5625C28.3906 34.7656 28.5781 33.8594 28.5781 32.8438C28.5781 32.6719 28.5703 32.5 28.5547 32.3281C28.5391 32.1562 28.5156 31.9766 28.4844 31.7891C28.125 31.8672 27.7656 31.9219 27.4062 31.9531C27.0469 31.9688 26.6875 31.9766 26.3281 31.9766C25.3281 31.9766 24.3828 31.8906 23.4922 31.7188C22.6172 31.5312 21.8438 31.3281 21.1719 31.1094C20.5 30.875 19.9609 30.6562 19.5547 30.4531C19.1484 30.25 18.9219 30.1328 18.875 30.1016C18.6875 30.0078 18.5391 29.8672 18.4297 29.6797C18.3203 29.4766 18.2656 29.2656 18.2656 29.0469C18.2656 28.6562 18.3984 28.3516 18.6641 28.1328C18.9297 27.9141 19.2109 27.8047 19.5078 27.8047C19.5547 27.8047 19.6016 27.8125 19.6484 27.8281C19.6953 27.8438 19.7422 27.8516 19.7891 27.8516C19.8203 27.8828 19.9531 27.9141 20.1875 27.9453C20.4375 27.9766 20.7656 27.9922 21.1719 27.9922C21.6094 27.9922 22.1406 27.9453 22.7656 27.8516C23.4062 27.7422 24.0938 27.5312 24.8281 27.2188C25.5625 26.8906 26.3359 26.4375 27.1484 25.8594C27.9609 25.2812 28.7734 24.5234 29.5859 23.5859C30.3203 22.7422 31.1094 21.9922 31.9531 21.3359C32.7969 20.6641 33.6641 20.1016 34.5547 19.6484C35.4609 19.1953 36.375 18.8516 37.2969 18.6172C38.2344 18.3672 39.1484 18.2422 40.0391 18.2422C41.3359 18.2422 42.5078 18.5 43.5547 19.0156C44.6016 19.5156 45.4922 20.1797 46.2266 21.0078C46.9766 21.8359 47.5469 22.7969 47.9375 23.8906C48.3438 24.9688 48.5469 26.0781 48.5469 27.2188ZM43.6719 72.9688C43.6719 73.2344 43.5938 73.4844 43.4375 73.7188C43.2969 73.9375 43.0938 74.0859 42.8281 74.1641C42.2812 74.3047 41.7422 74.4375 41.2109 74.5625C40.6797 74.6719 40.1406 74.7656 39.5938 74.8438C40 77.3125 40.2812 79.7109 40.4375 82.0391C40.6094 84.3672 40.6953 86.6719 40.6953 88.9531C40.6953 92.0469 40.5703 95.0312 40.3203 97.9062C40.0859 100.781 39.7969 103.602 39.4531 106.367C39.3594 106.711 39.1953 106.969 38.9609 107.141C38.7422 107.328 38.4922 107.422 38.2109 107.422C37.6797 107.422 37.3125 107.172 37.1094 106.672C36.6719 105.609 36.0703 104.305 35.3047 102.758C34.5547 101.195 33.7031 99.5234 32.75 97.7422C31.8125 95.9453 30.8125 94.0859 29.75 92.1641C28.7031 90.2422 27.6719 88.3828 26.6562 86.5859C25.6562 84.7891 24.7109 83.1094 23.8203 81.5469C22.9297 79.9688 22.1719 78.6328 21.5469 77.5391L20.8438 104.703C21.4375 104.75 22.0391 104.797 22.6484 104.844C23.2734 104.891 23.8984 104.938 24.5234 104.984C24.8359 105.031 25.0938 105.172 25.2969 105.406C25.5156 105.641 25.625 105.914 25.625 106.227C25.625 106.586 25.4922 106.875 25.2266 107.094C24.9609 107.312 24.6797 107.422 24.3828 107.422H24.2891C23.0391 107.297 21.7891 107.203 20.5391 107.141C19.3047 107.078 18.0625 107.047 16.8125 107.047C15.5781 107.047 14.3516 107.078 13.1328 107.141C11.9297 107.203 10.7188 107.297 9.5 107.422H9.40625C9.0625 107.422 8.76562 107.297 8.51562 107.047C8.28125 106.812 8.16406 106.539 8.16406 106.227C8.16406 105.914 8.26562 105.641 8.46875 105.406C8.6875 105.172 8.95312 105.031 9.26562 104.984C9.84375 104.938 10.4219 104.891 11 104.844C11.5938 104.797 12.1797 104.75 12.7578 104.703L13.2969 75.125C11.9531 75.0312 10.5938 74.8906 9.21875 74.7031C8.90625 74.6562 8.64844 74.5156 8.44531 74.2812C8.25781 74.0312 8.16406 73.75 8.16406 73.4375C8.16406 73.0625 8.30469 72.7734 8.58594 72.5703C8.86719 72.3516 9.14062 72.2422 9.40625 72.2422H9.54688C11.2188 72.4609 12.8516 72.6328 14.4453 72.7578C16.0547 72.8672 17.6562 72.9219 19.25 72.9219H20.9844C21 72.9219 21.0469 72.9297 21.125 72.9453C21.2031 72.9453 21.2891 72.9609 21.3828 72.9922C21.4922 73.0234 21.6016 73.0781 21.7109 73.1562C21.8359 73.2344 21.9453 73.3438 22.0391 73.4844C22.1016 73.5938 22.3047 73.9453 22.6484 74.5391C22.9922 75.1328 23.4375 75.9062 23.9844 76.8594C24.5312 77.8125 25.1562 78.9141 25.8594 80.1641C26.5781 81.4141 27.3359 82.75 28.1328 84.1719C28.9453 85.5938 29.7734 87.0703 30.6172 88.6016C31.4609 90.1328 32.2891 91.6641 33.1016 93.1953C33.9297 94.7109 34.7188 96.1953 35.4688 97.6484C36.2344 99.0859 36.9219 100.43 37.5312 101.68C37.7344 99.6328 37.9062 97.5547 38.0469 95.4453C38.1875 93.3359 38.2578 91.1719 38.2578 88.9531C38.2578 86.7344 38.1719 84.4688 38 82.1562C37.8281 79.8438 37.5469 77.4688 37.1562 75.0312C36.9531 75.0625 36.7578 75.0781 36.5703 75.0781C36.3828 75.0781 36.1797 75.0781 35.9609 75.0781C35.0391 75.0781 34.0781 75.0312 33.0781 74.9375C32.7656 74.9062 32.5 74.7734 32.2812 74.5391C32.0781 74.2891 31.9766 74.0078 31.9766 73.6953C31.9766 73.3516 32.1016 73.0625 32.3516 72.8281C32.6172 72.5938 32.9062 72.4766 33.2188 72.4766H33.3594C33.7969 72.5391 34.2266 72.5859 34.6484 72.6172C35.0859 72.6328 35.5234 72.6406 35.9609 72.6406C37.0391 72.6406 38.0938 72.5703 39.125 72.4297C40.1562 72.2891 41.1641 72.0859 42.1484 71.8203C42.2109 71.7891 42.3203 71.7734 42.4766 71.7734C42.8203 71.7734 43.1016 71.8984 43.3203 72.1484C43.5547 72.3828 43.6719 72.6562 43.6719 72.9688Z" fill="#00FF0A"/>
</g>
<defs>
<filter id="filter0_d_0_3" x="-2" y="0" width="56" height="56" filterUnits="userSpaceOnUse" color-interpolation-filters="sRGB">
<feFlood flood-opacity="0" result="BackgroundImageFix"/>
<feColorMatrix in="SourceAlpha" type="matrix" values="0 0 0 0 0 0 0 0 0 0 0 0 0 0 0 0 0 0 127 0" result="hardAlpha"/>
<feOffset dy="4"/>
<feGaussianBlur stdDeviation="2"/>
<feComposite in2="hardAlpha" operator="out"/>
<feColorMatrix type="matrix" values="0 0 0 0 0 0 0 0 0 0 0 0 0 0 0 0 0 0 0.25 0"/>
<feBlend mode="normal" in2="BackgroundImageFix" result="effect1_dropShadow_0_3"/>
<feBlend mode="normal" in="SourceGraphic" in2="effect1_dropShadow_0_3" result="shape"/>
</filter>
<clipPath id="clip0_0_3">
<rect width="48" height="48" fill="white" transform="translate(2)"/>
</clipPath>
</defs>
</svg>
